inDegrees=no
num_controls=7
num_derivatives=13
num_iterations=127
num_multipliers=7
num_parameters=0
num_slacks=7
num_states=26
objective=0.542750
objective_accelerations=0.066464
objective_balance=0.003449
objective_effort=0.048500
objective_height=0.415190
objective_ligament=0.009147
solver_duration=1661.720254
status=Solve_Succeeded
success=true
DataType=double
version=3
OpenSimVersion=4.5
endheader
time	/jointset/ground_pelvis/pelvis_tilt/value	/jointset/ground_pelvis/pelvis_tx/value	/jointset/ground_pelvis/pelvis_ty/value	/jointset/hip_r/hip_flexion_r/value	/jointset/hip_r/hip_adduction_r/value	/jointset/hip_r/hip_rotation_r/value	/jointset/back/lumbar_extension/value	/jointset/patellofemoral_r/patellar_flexion_r/value	/jointset/knee_r/knee_flexion_r/value	/jointset/knee_r/knee_adduction_r/value	/jointset/knee_r/knee_rotation_r/value	/jointset/ankle_r/ankle_angle_r/value	/jointset/subtalar_r/subtalar_angle_r/value	/jointset/ground_pelvis/pelvis_tilt/speed	/jointset/ground_pelvis/pelvis_tx/speed	/jointset/ground_pelvis/pelvis_ty/speed	/jointset/hip_r/hip_flexion_r/speed	/jointset/hip_r/hip_adduction_r/speed	/jointset/hip_r/hip_rotation_r/speed	/jointset/back/lumbar_extension/speed	/jointset/patellofemoral_r/patellar_flexion_r/speed	/jointset/knee_r/knee_flexion_r/speed	/jointset/knee_r/knee_adduction_r/speed	/jointset/knee_r/knee_rotation_r/speed	/jointset/ankle_r/ankle_angle_r/speed	/jointset/subtalar_r/subtalar_angle_r/speed	/forceset/tau_hip_flexion_r	/forceset/tau_hip_adduction_r	/forceset/tau_hip_rotation_r	/forceset/tau_knee_flexion_r	/forceset/tau_ankle_angle_r	/forceset/tau_subtalar_angle_r	/forceset/tau_lumbar_extension	lambda_cid13_p0	lambda_cid14_p0	lambda_cid14_p1	lambda_cid14_p2	lambda_cid14_p3	lambda_cid14_p4	lambda_cid14_p5	/jointset/ground_pelvis/pelvis_tilt/accel	/jointset/ground_pelvis/pelvis_tx/accel	/jointset/ground_pelvis/pelvis_ty/accel	/jointset/hip_r/hip_flexion_r/accel	/jointset/hip_r/hip_adduction_r/accel	/jointset/hip_r/hip_rotation_r/accel	/jointset/back/lumbar_extension/accel	/jointset/patellofemoral_r/patellar_flexion_r/accel	/jointset/knee_r/knee_flexion_r/accel	/jointset/knee_r/knee_adduction_r/accel	/jointset/knee_r/knee_rotation_r/accel	/jointset/ankle_r/ankle_angle_r/accel	/jointset/subtalar_r/subtalar_angle_r/accel	gamma_cid13_p0	gamma_cid14_p0	gamma_cid14_p1	gamma_cid14_p2	gamma_cid14_p3	gamma_cid14_p4	gamma_cid14_p5
0.5	-0.2050423256872383	-8.143725381516034e-05	0.7991302493709167	1.02161611015306	-0.2195418144927466	-0.1216556782767928	-0.3436502756986599	0.9126855052058994	0.9126855052060592	-0.03117144082137763	0.1745180924252733	0.280938963152122	0.07608620802066347	-0.5249971439537561	-0.1786903008177335	-0.6001913125386453	2.286125672788647	-0.0001772433401999113	0.1890610848323044	-0.5857437012406055	2.269624090419903	2.269624090419962	-0.4791126517261968	0.0002067418996960511	0.6216071930585068	0.1942079588153466	-0.1447363325056372	-0.02037363548603936	0.01244386445613826	-0.3722286984836549	0.1047371680835743	-0.002208226451825307	0.1823777743217413	-17.9246126470137	-7.093743216139614	-0.1204225299436833	-1.897462494825587	-4.44728879495169	-653.3980540191284	62.28282912577586	0.5116466606805549	0.6598503050674505	-0.6160870745362461	-1.390238307111577	-0.2453915910760554	-0.9086500959565711	1.813673856342164	-1.486644994817377	-1.486644994817373	0.3582587151998305	-0.03262868451241034	-0.814445366974461	-0.386674712918018	-1.777560599221641e-07	-1.429275666969699e-07	1.651721827949448e-06	-1.045581425363685e-06	-9.592267065972664e-08	-2.7177451367476e-07	9.984719639463203e-07
0.51	-0.2102655432679707	-0.001835143956313379	0.7930989708634854	1.04440424761016	-0.2195567319436899	-0.1198105876468955	-0.3494168037250063	0.9353041417633318	0.9353041417633321	-0.03594287014003886	0.1745199697917115	0.2871130410742955	0.07800718404426936	-0.5195662917306633	-0.1720342166004702	-0.6059234936260656	2.271201530176582	-0.002801223631431749	0.1799625233003477	-0.5675004778450258	2.253795168022096	2.253795168022159	-0.4751617362896208	0.0001710252302100209	0.6131151648260982	0.1899453682583782	-0.1522198896466774	-0.01868256719961491	0.01252336717579077	-0.3767753706797642	0.1021004525080529	-0.001322940814866304	0.1890273117136372	-16.41422280657013	-8.240970593881887	-0.1007823799481041	-1.713302287781127	-3.99635639029171	-659.477309475014	62.43057410612058	0.5707998190951147	0.6709970866382461	-0.5307057328857072	-1.588566918642809	-0.2702255511767561	-0.9099285993224305	1.838860508807819	-1.677188292867934	-1.677188292867436	0.4154283257657257	0.01108989763517107	-0.880611747224036	-0.4522357069483552	-1.755400419669696e-07	-1.786897361690772e-07	1.358056624080782e-06	-1.357807855356005e-06	-4.149130690033086e-08	-2.833771144858694e-07	8.258835068597366e-07
0.52	-0.2154320532632794	-0.003521787895322581	0.7870145861237716	1.067034130705062	-0.2195977540581517	-0.1180563765158178	-0.3549990567318686	0.9577552546106638	0.9577552546105066	-0.04067440623075914	0.1745215166026229	0.2931993926749749	0.07988429726633314	-0.5136556268687056	-0.1652777481199301	-0.6108125589951144	2.25447480034896	-0.005398176043866425	0.1708851850681035	-0.5488886973437624	2.236119348400065	2.23611934840013	-0.471134006137876	0.000140630792799074	0.6040619287596903	0.1854353985069257	-0.1597034467877116	-0.01699149891318322	0.0126028698954439	-0.3813220428758732	0.09946373693253327	-0.0004376551778969921	0.1956768491055378	-14.9135747151926	-9.390252901599139	-0.0774357007057469	-1.534378264143562	-3.563738984396706	-665.594840196548	62.64917278242088	0.6076091884535735	0.6799271577227429	-0.4474639308619932	-1.750755750223223	-0.2399860153166188	-0.9044054360140629	1.887385277478952	-1.856024439662446	-1.856024439662442	0.3736216582335863	-0.03156423809740587	-0.9266869337743807	-0.4361505518148804	-1.713172868198535e-07	-2.131275786649816e-07	1.02515416162611e-06	-1.654072680513644e-06	1.46478112079785e-08	-2.861063827471477e-07	6.05746153273091e-07
0.53	-0.2205371571813249	-0.00514042283216066	0.7808855848233951	1.089487865572211	-0.2196646007867837	-0.116391653595938	-0.3603934518576564	0.9800205575404997	0.9800205575403201	-0.04536439010311906	0.1745221210682723	0.2991925050491035	0.08171504785617842	-0.5072913447179795	-0.1584378043143135	-0.6148402666096098	2.235976338648148	-0.0079615770070558	0.1620748955145794	-0.5299419045421454	2.216641711105538	2.216641711105615	-0.4668437584954273	-2.16796611989834e-05	0.5944776414493456	0.1806797977654407	-0.1670501906332938	-0.01531212680654317	0.01270975939707429	-0.38615697951374	0.09709932458002717	0.0001941496356518564	0.2022002187840479	-13.4253738255673	-10.479738536594	-0.1759785072455494	-1.310580042450472	-3.129307178408411	-671.8906765741998	62.69161550019696	0.6618848836275351	0.6877520588365426	-0.358366514167504	-1.943797181251647	-0.2632925896847658	-0.8673230891035084	1.905589772345141	-2.038528523660831	-2.038528523659071	0.4596842738445532	-0.009196648082546803	-0.9867619216585128	-0.5005825101788458	-1.711604354143969e-07	-2.478448261927617e-07	7.290085014246889e-07	-1.939661591322727e-06	6.496640680755674e-08	-2.839552522961658e-07	3.829755748785621e-07
0.54	-0.2255764088468157	-0.006690313517571591	0.7747207179793889	1.111747734662103	-0.2197568366156219	-0.114814630046406	-0.3655969263572598	1.002082105067525	1.002082105067327	-0.05001087990773898	0.1745209759895902	0.3050872820917298	0.08349717890363616	-0.5004851763574309	-0.1515288978345005	-0.6179856677210689	2.215701644897676	-0.01047599608483587	0.1533453109977791	-0.5107045721068408	2.195368267838489	2.195368267838579	-0.4624351925892178	-0.0002092780764586432	0.5843948624592407	0.1757114900294149	-0.1743969344788686	-0.01363275469988996	0.01281664889871274	-0.3909919161516063	0.09473491222752435	0.0008259544492201592	0.2087235884625635	-11.95161205112929	-11.57140794657322	-0.2711992873956853	-1.091543951676542	-2.717447869267394	-678.2242594488362	62.80961207657796	0.6959864304181462	0.693719692561963	-0.2710026302547316	-2.106002160155202	-0.2301896382347603	-0.8882644286693104	1.945493204216496	-2.215185634166756	-2.215185634166737	0.3972853109857298	-0.03662183034971971	-1.026385269726502	-0.4786919507230856	-1.755020307018403e-07	-2.828712026919789e-07	4.735299415885682e-07	-2.21343885221426e-06	1.088452753761983e-07	-2.764045317805558e-07	1.572916413774389e-07
0.55	-0.2305455305924439	-0.008170844120450894	0.7685288393902477	1.133796190148082	-0.2198738836097573	-0.1133237048619592	-0.3706066215795788	1.023922132717032	1.023922132716891	-0.05461217604256573	0.1745173591308239	0.3108788486043848	0.0852286645826569	-0.4932747978178234	-0.1445728048647297	-0.6202385542968978	2.193704825788486	-0.0129100419546041	0.1448402133368212	-0.4911948733348145	2.172346017648966	2.172346017648964	-0.4578341183621727	-0.0005215594000455643	0.5738469651414331	0.1705727855585999	-0.1816383778600243	-0.01232249049762202	0.01297610176032953	-0.3959315546318165	0.0923122362672467	0.001513623590112787	0.2151230731590413	-10.49363282738574	-12.68713985866913	-0.3362500975665945	-0.8888771931845579	-2.233077983466723	-684.6387640149246	63.05763777667775	0.743185432112855	0.6972433363756994	-0.1797617569240202	-2.289256758064896	-0.2468334930814736	-0.8318898199793601	1.959648067108086	-2.389395799344126	-2.389395799357825	0.4900534761002674	-0.03011602036944449	-1.079726768646931	-0.5336145873651846	-1.817628180639132e-07	-2.944454631241402e-07	4.706621022872923e-07	-2.295375725475773e-06	1.14820539852005e-07	-2.752904218039754e-07	1.090285857117223e-07
0.5600000000000001	-0.2354406241794017	-0.009581675946194372	0.762318965918213	1.155616130448617	-0.2200146353489392	-0.1119178821311495	-0.3754200318434951	1.045523207647043	1.045523207646957	-0.05916775443562086	0.1745103025114348	0.3165627891826938	0.08690833223854859	-0.4856795446229792	-0.1375891424073354	-0.6215846442998043	2.169998607808737	-0.01521694509372422	0.1363248202690517	-0.4714475804262878	2.147577723939483	2.147577723939389	-0.4532916442336755	-0.0008972302038831989	0.5628696755900634	0.1653478854036067	-0.1888798212411713	-0.0110122262953312	0.01313555462191182	-0.4008711931120293	0.08988956030697422	0.002201292731038202	0.2215225578555253	-9.052172085492998	-13.80532173008247	-0.3965455946695716	-0.6928920580668747	-1.773512858028212	-691.0987020779148	63.39062203620809	0.772961361465541	0.6992335900866152	-0.08964331567026562	-2.447881934266982	-0.2047610921051561	-0.8903235100316572	1.993012031516616	-2.564394338158822	-2.564394338158793	0.3855652912761645	-0.04929972639983769	-1.112263716438991	-0.4959310875587646	-1.903266359155415e-07	-2.778771842758355e-07	7.709271276278203e-07	-2.14710413358127e-06	7.53114794164114e-08	-2.819002444742305e-07	2.736705834484869e-07
0.5700000000000001	-0.2402577883823763	-0.0109226515795787	0.7561002025105832	1.177190462423044	-0.2201781274273004	-0.1105966323074561	-0.3800351480824952	1.066868005004219	1.066868005004091	-0.06367707183458406	0.1744994439106682	0.3221347325908531	0.08853480935021844	-0.4776909355435981	-0.1306120975575137	-0.6220165157254509	2.144596238848668	-0.01747274634966851	0.128065490322538	-0.4515587180726076	2.121116999344096	2.121116999344098	-0.4484357657621874	-0.001328994112097903	0.551448677355513	0.1599098713915212	-0.1960129261362885	-0.009263574614240622	0.01335346413776512	-0.4056805240225946	0.08721328890723876	0.002399356771902649	0.2277379735769924	-7.683327587527393	-15.0373620923867	-0.7382940565285747	-0.3961996937780018	-1.092815406380875	-697.4682337119983	63.17374128804125	0.8211350332164634	0.6960335316913701	0.002712041246348037	-2.627182404128987	-0.2349331265184031	-0.7730347960231574	1.989365732550867	-2.726584708644567	-2.726584708630205	0.5561511016457202	-0.04868174889653909	-1.167601038204593	-0.5734813296441119	-1.418295493569982e-07	-1.027529737012178e-07	1.489990253385393e-06	-8.900411131471037e-07	-1.024534762365716e-07	-2.313386049430896e-07	9.438491427582087e-07
